<svg width="900" height="1200" viewBox="0 0 900 1200" fill="none" xmlns="http://www.w3.org/2000/svg">
  <defs>
    <linearGradient id="wrBg" x1="90" y1="74" x2="790" y2="1126" gradientUnits="userSpaceOnUse">
      <stop stop-color="#FF6A21"/>
      <stop offset="0.55" stop-color="#FFB547"/>
      <stop offset="1" stop-color="#F5E4B8"/>
    </linearGradient>
  </defs>
  <rect width="900" height="1200" rx="56" fill="url(#wrBg)"/>
  <rect x="88" y="92" width="136" height="50" rx="25" fill="white" fill-opacity="0.72"/>
  <text x="132" y="126" fill="#92532A" font-size="28" font-family="Arial" font-weight="700">写作</text>
  <text x="622" y="132" fill="#FFF7E5" font-size="40" font-family="Georgia, serif" font-style="italic">Master</text>
  <text x="94" y="262" fill="white" font-size="106" font-family="Arial" font-weight="900">新媒体</text>
  <text x="94" y="368" fill="white" font-size="106" font-family="Arial" font-weight="900">写作课</text>
  <text x="100" y="442" fill="#FFF2DE" font-size="32" font-family="Arial">打造爆款内容框架 · 标题技巧 · 选题拆解</text>
  <g opacity="0.95">
    <path d="M610 274c18-34 56-54 94-49 38 4 70 31 81 67" stroke="#FFF5E4" stroke-width="8" stroke-linecap="round"/>
    <path d="M664 250c16 8 30 20 40 36" stroke="#FFF5E4" stroke-width="8" stroke-linecap="round"/>
  </g>
  <rect x="84" y="560" width="732" height="556" rx="40" fill="rgba(255,255,255,0.12)"/>
  <rect x="480" y="650" width="248" height="300" rx="34" stroke="#FFF5E4" stroke-width="10"/>
  <circle cx="604" cy="800" r="62" stroke="#FFF5E4" stroke-width="10"/>
  <circle cx="604" cy="800" r="18" fill="#FFF5E4"/>
  <path d="M540 650v-26c0-40 28-68 64-68s64 28 64 68v26" stroke="#FFF5E4" stroke-width="10"/>
  <text x="104" y="820" fill="#FFF8EC" font-size="64" font-family="Arial" font-weight="900">内容框架</text>
  <text x="104" y="890" fill="#FFF8EC" font-size="64" font-family="Arial" font-weight="900">标题公式</text>
  <text x="104" y="950" fill="#FFF4E3" font-size="30" font-family="Arial">适合教程类、知识类、账号运营类内容模板</text>
  <rect x="104" y="1000" width="222" height="58" rx="29" fill="white"/>
  <text x="160" y="1038" fill="#D97721" font-size="28" font-family="Arial" font-weight="800">立即试听</text>
</svg>
