<svg width="900" height="1500" viewBox="0 0 900 1500" fill="none" xmlns="http://www.w3.org/2000/svg">
  <defs>
    <linearGradient id="bg4" x1="88" y1="66" x2="780" y2="1430" gradientUnits="userSpaceOnUse">
      <stop stop-color="#15C39A"/>
      <stop offset="0.45" stop-color="#00A5A6"/>
      <stop offset="1" stop-color="#0A4362"/>
    </linearGradient>
  </defs>
  <rect width="900" height="1500" rx="56" fill="url(#bg4)"/>
  <circle cx="748" cy="196" r="158" fill="#D7FFF1" fill-opacity="0.18"/>
  <rect x="82" y="96" width="190" height="54" rx="27" fill="#E5FFF8"/>
  <text x="128" y="132" fill="#00816B" font-size="28" font-family="Arial, Helvetica, sans-serif" font-weight="700">活动传播</text>
  <text x="80" y="268" fill="white" font-size="98" font-family="Arial, Helvetica, sans-serif" font-weight="900">平台活动</text>
  <text x="80" y="368" fill="white" font-size="98" font-family="Arial, Helvetica, sans-serif" font-weight="900">主视觉图</text>
  <text x="84" y="446" fill="#D9FFF3" font-size="34" font-family="Arial, Helvetica, sans-serif">促销活动、节日节点、联名专题都能快速套版</text>
  <rect x="84" y="578" width="732" height="802" rx="42" fill="white" fill-opacity="0.12"/>
  <rect x="136" y="634" width="626" height="690" rx="34" fill="#092C4D"/>
  <rect x="176" y="684" width="152" height="46" rx="23" fill="#18D5A8"/>
  <text x="214" y="716" fill="#073C4D" font-size="24" font-family="Arial, Helvetica, sans-serif" font-weight="800">TOPIC</text>
  <text x="176" y="846" fill="white" font-size="94" font-family="Arial, Helvetica, sans-serif" font-weight="900">CREATOR</text>
  <text x="176" y="944" fill="#18D5A8" font-size="86" font-family="Arial, Helvetica, sans-serif" font-weight="900">WEEK</text>
  <text x="176" y="1016" fill="#D6FFF4" font-size="32" font-family="Arial, Helvetica, sans-serif">一键生成话题活动页、招募海报、联名宣传图</text>
  <rect x="176" y="1102" width="546" height="2" fill="#2BD7B1" fill-opacity="0.4"/>
  <rect x="176" y="1140" width="192" height="62" rx="31" fill="white"/>
  <text x="222" y="1181" fill="#0D4E61" font-size="28" font-family="Arial, Helvetica, sans-serif" font-weight="800">活动套版</text>
  <text x="86" y="1430" fill="#DAFFF6" font-size="26" font-family="Arial, Helvetica, sans-serif">适合活动页头图、直播预热、专题招募、平台宣传</text>
</svg>
